<?xml version="1.0" encoding="utf-8"?>
<!-- Generator: Adobe Illustrator 27.5.0, SVG Export Plug-In . SVG Version: 6.00 Build 0)  -->
<svg version="1.1" id="Capa_1" xmlns="http://www.w3.org/2000/svg" xmlns:xlink="http://www.w3.org/1999/xlink" x="0px" y="0px"
	 viewBox="0 0 2599 1733" style="enable-background:new 0 0 2599 1733;" xml:space="preserve">
<path style="fill:#1F2A50;" d="M1930.676,446.5c2.086-1.066,4.172-2.063,6.262-3.063c0.473-2.871,1-5.727,1.543-8.582
	c1.402-7.457,2.938-14.887,4.75-22.254c-0.73,0.578-1.395,1.09-2.164,1.695c-10.723,8.426-20.242,25.215-23.363,33.566
	c0.609,1.582,1.219,3.16,1.816,4.75c0.102,0.266,0.203,0.531,0.305,0.797C1922.27,450.977,1925.762,449.02,1930.676,446.5z"/>
<path style="fill:#7D88B3;" d="M1937.773,511.625c0.102-0.848,0.195-1.688,0.293-2.531c-3.141-2.527-4.738-4.332-4.738-4.332
	l0.004-0.008c-3.383-19.68,0-38.961,3.074-58.379c0.156-0.984,0.371-1.957,0.531-2.938c-2.09,1-4.176,1.996-6.262,3.063
	c-4.914,2.52-8.406,4.477-10.852,6.91c-3.355,3.332-4.684,7.59-4.457,15.688c0.57,20.922,2.512,41.84,6.039,62.492
	c2.719-4.043,5.398-8.117,8.012-12.242C1932.586,514.336,1933.738,512.394,1937.773,511.625z"/>
<path style="fill:#7D88B3;" d="M1941.066,414.297c0.77-0.605,1.434-1.117,2.164-1.695c2.754-11.219,5.945-22.332,9.512-33.309
	c1.648-5.074,3.355-8.359,5.539-10.602c-0.172-0.203-0.359-0.43-0.523-0.629c-3.273-3.844-5.863-6.828-6.625-7.645
	c-10.281-11.082-20.879-21.914-32.109-32.051c-7.066-6.375-14.379-12.512-21.996-18.219c-6.641-4.969-14.094-12.156-23.121-9.813
	c-1.813,0.473-3.641,1.359-5.41,2.719c-10.168,7.863-13.703,23.066-14.578,35.387c-1.945,27.23,12.961,55.086,28.727,76.457
	c5.523,7.488,11.656,14.535,18.324,21.031c1.324,1.281,12.918,13.313,15.688,15.555c0,0,0.719,0.941,2.863,1.129
	c-0.598-1.59-1.207-3.168-1.816-4.75C1920.824,439.512,1930.344,422.723,1941.066,414.297z"/>
<path style="fill:#1F2A50;" d="M1998.641,518.652c5.145-2.953,7.066-4.137,11-2.938c0.48-0.703,0.953-1.398,1.438-2.102
	c-1.602-3.699-2.172-6.043-2.172-6.043l0.012-0.004c0.613-1.902,1.332-3.742,2.059-5.574c0.148-0.359,0.262-0.738,0.41-1.102
	c-23.551-7.125-49.426-6.715-72.527,1.715c-0.281,2.164-0.543,4.328-0.793,6.488c-0.098,0.844-0.191,1.684-0.293,2.531
	c1.176-0.23,2.559-0.367,4.348-0.441c5.582-0.223,11.301,0.355,16.805,1.262c10.941,1.793,21.566,5.492,31.238,10.922
	C1992.996,521.813,1995.832,520.266,1998.641,518.652z"/>
<path style="fill:#1F2A50;" d="M1974.738,363.129c5.227-0.691,10.406-1.188,15.578-1.504c7.371-0.457,14.734-0.484,22.234,0.309
	c3.23,0.348,8.027,0.75,13.168,1.496c8.469,1.234,17.676,2.816,22.773,8.445c-0.441-1.168-0.914-2.352-1.422-3.563
	c-4.469-10.652-7.129-21.859-12.156-32.379c-0.629-1.324-1.305-2.645-2.016-3.953c-0.953-1.77-2-3.496-3.145-5.125
	c-8.844,0.934-18.152,3.91-34.449,9.406c-12.93,4.348-27.512,16.98-33.246,23.809c0.043,1.691,0.082,3.387,0.117,5.082
	c0,0.285,0.012,0.566,0.02,0.852C1965.316,364.531,1969.262,363.859,1974.738,363.129z"/>
<path style="fill:#A1A8C3;" d="M1898.801,574.644c1.16-0.828,2.316-1.672,3.484-2.476c27.867-19.188,58.449-32.645,87.879-48.801
	c-9.672-5.43-20.297-9.129-31.238-10.922c-5.504-0.906-11.223-1.484-16.805-1.262c-1.789,0.074-3.172,0.211-4.348,0.441
	c-4.035,0.769-5.188,2.711-8.355,7.723c-2.613,4.125-5.293,8.199-8.012,12.242c-11.938,17.762-24.629,34.898-36.223,52.848
	c0.441,0.074,0.871,0.164,1.301,0.242C1890.293,581.016,1894.477,577.731,1898.801,574.644z"/>
<path style="fill:#A1A8C3;" d="M2025.719,363.43c-5.141-0.746-9.938-1.148-13.168-1.496c-7.5-0.793-14.863-0.766-22.234-0.309
	c-10.621,11.211-21.785,22.523-30.168,34.965c-8.289,12.297-15.754,24.789-21.668,38.266c-0.543,2.855-1.07,5.711-1.543,8.582
	c-0.16,0.98-0.375,1.953-0.531,2.938c-3.074,19.418-6.457,38.699-3.074,58.379l-0.004,0.008c0,0,1.598,1.805,4.738,4.332
	c0.25-2.16,0.512-4.324,0.793-6.488c23.102-8.43,48.977-8.84,72.527-1.715c6.59-16.016,17.102-29.676,27.461-43.535
	c4.516-6.055,9.273-11.918,14.129-17.703c-0.09-5.441-0.242-10.809-0.387-16.027c-0.332-13.797,0.477-28.145-0.137-41.715
	c-0.191-4.398-1.719-7.566-3.961-10.035C2043.395,366.246,2034.188,364.664,2025.719,363.43z"/>
<path style="fill:#C6CAD6;" d="M1952.742,379.293c-3.566,10.977-6.758,22.09-9.512,33.309c-1.813,7.367-3.348,14.797-4.75,22.254
	c5.914-13.477,13.379-25.969,21.668-38.266c8.383-12.441,19.547-23.754,30.168-34.965c-5.172,0.316-10.352,0.813-15.578,1.504
	c-5.477,0.73-9.422,1.402-12.543,2.875c-1.461,0.688-2.773,1.523-3.914,2.688C1956.098,370.934,1954.391,374.219,1952.742,379.293z"
	/>
<path style="fill:#A1A8C3;" d="M1995.305,336.262c16.297-5.496,25.605-8.473,34.449-9.406c1.145,1.629,2.191,3.355,3.145,5.125
	c2.059-3.32,2.781-5.477,2.781-5.477c0.172-1.535-4.934-17.098-9.172-28.223c-1.797-4.723-3.238-8.398-3.68-9.422
	c-5.98-13.883-12.348-27.641-19.531-40.949c-4.523-8.371-9.363-16.605-14.633-24.531c-3.602-5.414-7.254-12.223-13.125-15.328
	c-0.328,2.59-1.414,5.039-2.488,7.434c-17.586,39.324-24.902,83.18-21.035,126.078c0.168,1.867,0.305,3.781,0.113,5.629
	c2.41,5.199,6.379,13.738,7.727,15.941c0,0,0.371,1.133,2.32,2.02c-0.035-1.695-0.074-3.391-0.117-5.082
	C1967.793,353.242,1982.375,340.609,1995.305,336.262z"/>
<path style="fill:#C6CAD6;" d="M1952.016,341.563c-3.867-42.898,3.449-86.754,21.035-126.078c1.074-2.395,2.16-4.844,2.488-7.434
	c-1.617-0.855-3.367-1.484-5.371-1.66c-1.875-0.16-3.891,0.063-6.008,0.75c-12.215,4.008-20.641,17.152-25.59,28.469
	c-10.949,25.008-6.223,56.246,1.477,81.656c2.703,8.91,6.129,17.605,10.227,25.957c0.227,0.453,0.941,1.988,1.855,3.969
	C1952.32,345.344,1952.184,343.43,1952.016,341.563z"/>
<path style="fill:#203A73;" d="M2013.691,517.356c2.367,1.129,4.68,2.457,6.926,3.871c2.539,1.59,4.996,3.293,7.352,5.074
	c1.637,1.238,3.184,2.582,4.734,3.922c5.129-3.91,10.18-7.922,15.168-12.012c-10.43-4.969-21.578-8.394-33.012-9.957
	c-1.266,1.789-2.551,3.559-3.781,5.359c-0.484,0.703-0.957,1.398-1.438,2.102C2010.785,516.063,2012.074,516.586,2013.691,517.356z"
	/>
<path style="fill:#203A73;" d="M2139.977,414.723c4.398-8.809,8.332-17.863,12.168-26.992c0.328-0.789,0.652-1.602,0.98-2.398
	c-1.488-0.473-2.934-0.934-4.555-1.449c-13.004-4.121-32.234-2.531-40.887-0.406c-0.973,1.387-1.934,2.781-2.91,4.172
	c-2.453,3.488-4.859,7.008-7.098,10.605c3.84-0.215,7.98,1.152,13.898,3.332C2121.492,405.25,2130.957,409.379,2139.977,414.723z"/>
<path style="fill:#1F2A50;" d="M2032.703,530.223c1.758,1.516,3.449,3.102,5.094,4.742c2.938-2.984,6.227-5.691,9.609-8.059
	c2.434-1.703,4.867-3.422,7.313-5.141c-2.246-1.262-4.527-2.449-6.848-3.555C2042.883,522.301,2037.832,526.313,2032.703,530.223z"
	/>
<path style="fill:#1F2A50;" d="M2156.543,425.625c5.762,4.203,11.934,8.836,14.93,14.52c2.684-11.172,7.117-21.746,9.262-33.145
	c0.633-3.383,1.133-6.906,1.191-10.375c-6.922-4.023-15.238-6.965-28.801-11.293c-0.328,0.797-0.652,1.609-0.98,2.398
	c-3.836,9.129-7.77,18.184-12.168,26.992c0.316,0.188,0.629,0.387,0.938,0.574c1.563,0.941,3.145,1.84,4.672,2.863
	C2148.285,419.977,2152.336,422.566,2156.543,425.625z"/>
<path style="fill:#C6CAD6;" d="M2019.191,535.91c6.695-3.723,7.926-4.617,15.066-1.098c0.809,0.398,1.566,0.922,2.359,1.356
	c0.383-0.41,0.781-0.801,1.18-1.203c-1.645-1.641-3.336-3.227-5.094-4.742c-1.551-1.34-3.098-2.684-4.734-3.922
	c-2.355-1.781-4.813-3.484-7.352-5.074c-0.023,0.023-0.047,0.051-0.07,0.078c-3.363,3.309-8.043,5.723-12.648,8.023
	c-34.824,17.395-71.422,32.508-109.098,45.316c-4.324,3.086-8.508,6.371-12.316,10.035c9.633,1.789,18.988,4.621,26.887,9.75
	c2.859-2.176,5.789-4.273,8.773-6.269C1952.965,567.527,1986.984,553.859,2019.191,535.91z"/>
<path style="fill:#C6CAD6;" d="M2156.543,425.625c-4.207-3.059-8.258-5.648-10.957-7.465c-1.527-1.023-3.109-1.922-4.672-2.863
	c-5.27-0.082-10.523,0.168-15.688,1.18c-9.969,1.953-17.273,7.68-25.855,12.367c-9.793,5.348-19.074,11.781-27.953,18.531
	c-18.273,13.902-34.797,30.109-48.992,48.148c-1.797,2.281-3.645,4.668-6.242,5.969c-1.59,0.797-3.52,0.961-5.207,0.5
	c-0.727,1.832-1.445,3.672-2.059,5.574l-0.012,0.004c0,0,0.57,2.344,2.172,6.043c1.23-1.801,2.516-3.57,3.781-5.359
	c11.434,1.563,22.582,4.988,33.012,9.957c2.32,1.106,4.602,2.293,6.848,3.555c1-0.707,1.996-1.406,2.996-2.109
	c-0.191-4.027,0.102-6.418,0.102-6.418l0,0c12.477-15.586,29.148-25.859,45.707-36.449c19.406-12.434,39.926-23.09,61.027-32.301
	c3.02-1.32,5.512-2.137,7.746-2.563c-0.238-0.605-0.516-1.199-0.824-1.781l0,0C2168.477,434.461,2162.305,429.828,2156.543,425.625z
	"/>
<path style="fill:#C6CAD6;" d="M2148.57,383.883c1.621,0.516,3.066,0.977,4.555,1.449c13.563,4.328,21.879,7.27,28.801,11.293l0,0
	c-0.035,1.996-0.207,4-0.484,5.996c3.613-1.461,5.473-2.773,5.48-2.777l0,0c1.043-1.137,6.109-16.715,9.254-28.195
	c1.336-4.871,2.344-8.691,2.59-9.781c3.371-14.73,6.359-29.594,8.414-44.578c1.293-9.43,2.242-18.93,2.672-28.438
	c0.359-8.078,1.965-17.961-4.457-24.141c-22.512,12.535-43.832,27.457-61.734,45.977c-15.211,15.727-27.824,34.16-35.969,54.406
	c-0.984,4.961-3.359,16.605-3.598,19.551c0,0-0.371,1.129,0.68,3.004c0.977-1.391,1.938-2.785,2.91-4.172
	C2116.336,381.352,2135.566,379.762,2148.57,383.883z"/>
<path style="fill:#EBF2E5;" d="M2205.395,264.711c-0.16-0.156-0.273-0.34-0.449-0.492c-1.414-1.234-3.172-2.246-5.293-2.941
	c-12.219-3.977-26.777,1.66-37.453,7.871c-23.602,13.727-38.23,41.727-47.016,66.785c-3.078,8.781-5.445,17.82-7.07,26.988
	c-0.055,0.309-0.215,1.148-0.422,2.172c8.145-20.246,20.758-38.68,35.969-54.406
	C2161.563,292.168,2182.883,277.246,2205.395,264.711z"/>
<path style="fill:#EBF2E5;" d="M2011.387,500.891c-0.148,0.363-0.262,0.742-0.41,1.102c1.688,0.461,3.617,0.297,5.207-0.5
	c2.598-1.301,4.445-3.688,6.242-5.969c14.195-18.039,30.719-34.246,48.992-48.148c8.879-6.75,18.16-13.184,27.953-18.531
	c8.582-4.688,15.887-10.414,25.855-12.367c5.164-1.012,10.418-1.262,15.688-1.18c-0.309-0.188-0.621-0.387-0.938-0.574
	c-9.02-5.344-18.484-9.473-28.402-13.137c-5.918-2.18-10.059-3.547-13.898-3.332c-4.121,0.238-7.895,2.313-13.09,7.379
	c-11.094,10.793-21.656,22.152-31.609,34.02c-4.855,5.785-9.613,11.648-14.129,17.703
	C2028.488,471.215,2017.977,484.875,2011.387,500.891z"/>
<path style="fill:#EBF2E5;" d="M2007.898,529.328c4.605-2.301,9.285-4.715,12.648-8.023c0.023-0.027,0.047-0.055,0.07-0.078
	c-2.246-1.414-4.559-2.742-6.926-3.871c-1.617-0.77-2.906-1.293-4.051-1.641c-3.934-1.199-5.855-0.016-11,2.938
	c-2.809,1.613-5.645,3.16-8.477,4.715c-29.43,16.156-60.012,29.613-87.879,48.801c-1.168,0.805-2.324,1.648-3.484,2.476
	C1936.477,561.836,1973.074,546.723,2007.898,529.328z"/>
<path style="fill:#203A73;" d="M2037.797,534.965c-0.398,0.402-0.797,0.793-1.18,1.203c4.129,2.269,8.109,4.91,11.801,7.777
	c8.879,6.906,16.559,15.367,22.492,24.926c1.281,2.066,2.73,4.773,4.211,7.879c0.996-0.641,1.98-1.301,2.984-1.934
	c9.105-5.742,18.75-10.535,28.039-15.969c0.25-0.148,0.496-0.301,0.746-0.449c-10.52-17.711-25.688-32.676-43.793-42.453
	c-1.801,1.23-3.59,2.465-5.383,3.711c-1,0.703-1.996,1.402-2.996,2.109c-2.445,1.719-4.879,3.438-7.313,5.141
	C2044.023,529.273,2040.734,531.981,2037.797,534.965z"/>
<path style="fill:#203A73;" d="M2216.785,477.129c4.23-4.391,8.332-8.914,12.246-13.617c3.211-3.863,6.391-7.781,9.516-11.742
	c-2-1.594-4.117-3.266-6.449-5.102c-1.285-1.012-2.711-1.965-4.188-2.883c-0.199-0.125-0.395-0.254-0.598-0.379
	c-1.422-0.859-2.918-1.668-4.457-2.441c-0.289-0.145-0.574-0.285-0.859-0.426c-1.547-0.75-3.121-1.465-4.723-2.121
	c-0.25-0.105-0.5-0.203-0.758-0.309c-1.668-0.676-3.352-1.316-5.023-1.891c-0.027-0.012-0.066-0.023-0.105-0.035
	c-1.727-0.594-3.426-1.125-5.078-1.605c-0.125-0.039-0.25-0.078-0.371-0.113c-1.617-0.461-3.176-0.863-4.652-1.215
	c-0.168-0.039-0.336-0.078-0.496-0.117c-1.457-0.336-2.84-0.621-4.102-0.84c-0.102-0.02-0.195-0.035-0.297-0.051
	c-0.906-0.156-1.684-0.246-2.453-0.336c-1.383,0.953-2.762,1.91-4.16,2.859c-3.52,2.402-7.016,4.848-10.375,7.43
	c3.664,1.148,7.059,3.887,11.84,8.012C2200.711,458.414,2209.422,466.949,2216.785,477.129z"/>
<path style="fill:#1F2A50;" d="M2106.891,558.398c-0.25,0.148-0.496,0.301-0.746,0.449c-9.289,5.433-18.934,10.227-28.039,15.969
	c-1.004,0.633-1.988,1.293-2.984,1.934c0.211,0.441,0.418,0.93,0.629,1.387c3.953,8.586,7.965,19.91,9.414,30.371
	c0.555,4.012,0.699,7.871,0.348,11.402c10.023-7.457,20.055-14.91,30.074-22.363c1.68-1.25,3.359-2.5,5.035-3.746
	C2118.125,581.324,2113.387,569.344,2106.891,558.398z"/>
<path style="fill:#1F2A50;" d="M2258.824,470.348c-4.648-5.699-10.676-10.93-20.277-18.578c-3.125,3.961-6.305,7.879-9.516,11.742
	c-3.914,4.703-8.016,9.227-12.246,13.617c0.145,0.199,0.301,0.375,0.441,0.57c0.656,0.918,1.457,2.023,2.305,3.199
	c1.605,2.219,3.453,4.809,5.32,7.648c3.914,5.965,8.07,12.48,8.867,18.855c4.016-5.934,8.551-11.43,12.891-17.109
	c2.613-3.434,5.18-6.922,7.445-10.656c0.758-1.25,1.492-2.539,2.203-3.848c0.031-0.051,0.055-0.098,0.078-0.148
	C2257.266,473.918,2258.113,472.152,2258.824,470.348z"/>
<path style="fill:#EBF2E5;" d="M2016.68,614.492c19.023-11.719,37.926-23.668,57.086-35.164c0.652-0.402,1.316-0.801,1.984-1.191
	c-0.211-0.457-0.418-0.945-0.629-1.387c-1.48-3.106-2.93-5.813-4.211-7.879c-5.934-9.559-13.613-18.019-22.492-24.926
	c-3.691-2.867-7.672-5.508-11.801-7.777c-0.793-0.434-1.551-0.957-2.359-1.356c-7.141-3.519-8.371-2.625-15.066,1.098
	c-32.207,17.949-66.227,31.617-97.047,52.25c-2.984,1.996-5.914,4.094-8.773,6.269c5.027,3.27,9.465,7.449,12.984,12.91
	c6.625,10.289,12.289,21.184,16.918,32.504c2.117,5.192,4.004,10.477,5.676,15.828c5.602-3.23,11.23-6.375,16.527-9.637
	C1982.543,635.519,1999.613,625.008,2016.68,614.492z"/>
<path style="fill:#C6CAD6;" d="M2085.164,608.508c-1.449-10.461-5.461-21.785-9.414-30.371c-0.668,0.391-1.332,0.789-1.984,1.191
	c-19.16,11.496-38.063,23.445-57.086,35.164c-17.066,10.516-34.137,21.027-51.203,31.543c-5.297,3.262-10.926,6.406-16.527,9.637
	c1.973,6.273,3.656,12.637,4.992,19.074c2.18,10.512,3.48,21.629,0.141,31.832c-2.176,6.637-5.922,11.477-10.609,15.129
	c8.699-1.121,16.066-6.887,22.625-12.535c9.746-8.395,22.699-13.953,33.707-20.676c20.684-12.629,40.844-26.102,60.418-40.379
	c6.742-4.922,14.453-9.988,20.328-15.938c2.98-3.016,4.469-7.313,4.961-12.269C2085.863,616.379,2085.719,612.519,2085.164,608.508z
	"/>
<path style="fill:#EBF2E5;" d="M2164.551,444.488c-21.102,9.211-41.621,19.867-61.027,32.301
	c-16.559,10.59-33.23,20.863-45.707,36.449v0.004c0,0,12.551-9.945,45.645,29.453c3.082,3.676,5.848,7.766,8.449,11.996
	c13.223-5.152,26.074-11.254,38.383-18.309c25.762-14.77,49.223-33.543,69.238-55.484c-0.848-1.176-1.648-2.281-2.305-3.199
	c-0.141-0.195-0.297-0.371-0.441-0.57c-7.363-10.18-16.074-18.715-25.543-26.922c-4.781-4.125-8.176-6.863-11.84-8.012
	c-2.156-0.672-4.43-0.785-7.105-0.27C2170.063,442.352,2167.57,443.168,2164.551,444.488z"/>
<path style="fill:#C6CAD6;" d="M2224.852,488.547c-1.867-2.84-3.715-5.43-5.32-7.648c-20.016,21.941-43.477,40.715-69.238,55.484
	c-12.309,7.055-25.16,13.156-38.383,18.309c4.738,7.707,8.691,16.051,11.445,24.355c3.047,9.207,2.672,19.398-1.68,20.887
	c29.449-7.199,54.313-31.027,75.98-51.34c10.102-9.406,21.371-18.32,31.117-27.789c4.355-4.223,5.527-8.777,4.945-13.402l0,0
	C2232.922,501.027,2228.766,494.512,2224.852,488.547z"/>
<path style="fill:#EBF2E5;" d="M2211.91,432.434l0.02,0.035c11.371,2.488,20.973,8.09,28.688,14.426
	c3.223-3.992,6.445-7.984,9.668-11.98c13.809-17.117,26.844-34.918,40.934-51.801c7.453-8.93,14.039-18.578,19.668-28.758
	c1.574-2.859,3.059-5.77,4.488-8.707c-9.34-3.551-20.73-3.141-30.113-1.559c-26.922,4.531-50.473,25.586-67.527,45.941
	c-5.973,7.137-11.375,14.762-16.117,22.77c-0.93,1.59-9.895,15.695-11.414,18.914
	C2190.203,431.715,2192.465,427.633,2211.91,432.434z"/>
<path style="fill:#A1A8C3;" d="M2123.355,579.047c-2.754-8.305-6.707-16.648-11.445-24.355c-2.602-4.231-5.367-8.32-8.449-11.996
	c-33.094-39.398-45.645-29.453-45.645-29.453v-0.004l0,0c0,0-0.293,2.391-0.102,6.418c1.793-1.246,3.582-2.48,5.383-3.711
	c18.105,9.777,33.273,24.742,43.793,42.453c6.496,10.945,11.234,22.926,13.73,35.402c-1.676,1.246-3.355,2.496-5.035,3.746
	c3.816,1.758,6.086,2.387,6.09,2.387l0,0C2126.027,598.445,2126.402,588.254,2123.355,579.047z"/>
<path style="fill:#203A73;" d="M1131.188,661.043c-0.816,2.801-1.676,5.605-2.555,8.422c0.641,2.469,0.711,5.109,0.758,7.68
	c0.563,28.066,1.117,56.129,1.676,84.191c0.098,4.816,0.215,9.77,2.078,14.219c3.594,8.586,10.359,8.129,18.184,8.488
	c42.406,1.953,57.441-46.207,58.73-81.758c-1.676-17.32-1.906-35.031-0.477-53.106c0.703-8.875,1.777-17.75,3.176-26.602
	c-1.492-9.875-1.82-19.34-0.531-27.938c-26.395,11.699-52.863,23.582-79.25,35.75
	C1136.867,639.945,1134.098,651.016,1131.188,661.043z"/>
<path style="fill:#20325F;" d="M1160.535,864.988c29.355-15.785,56.34-34.508,83.438-53.066
	c-10.461-19.008-18.715-38.895-24.566-59.555c-4.602-16.242-7.691-32.969-9.348-50.082c-1.289,35.551-16.324,83.711-58.73,81.758
	c-7.824-0.359-14.59,0.098-18.184-8.488c-1.863-4.449-1.98-9.402-2.078-14.219c-0.559-28.063-1.113-56.125-1.676-84.191
	c-0.047-2.57-0.117-5.211-0.758-7.68c-10.047,32.246-23.176,65.512-18.754,99.352c2.305,17.738,10.488,62.875,23.438,111.805
	C1142.07,874.914,1151.434,869.887,1160.535,864.988z"/>
<path style="fill:#1F2A50;" d="M1160.535,864.988c-9.102,4.898-18.465,9.926-27.219,15.633
	c8.457,31.941,18.945,65.477,31.164,94.094c6.535-7.273,13.102-14.453,19.75-21.582c15.34-16.457,31.313-32.637,49.699-48.836
	c15.348-13.527,30.395-27.383,45.293-41.406c-13.691-16.125-25.449-33.156-35.25-50.969
	C1216.875,830.481,1189.891,849.203,1160.535,864.988z"/>
<path style="fill:#20325F;" d="M1416.023,570.144c1.309,25.117,9.973,49.973,25.582,69.797
	c18.988,24.117,47.582,39.91,77.824,44.832c16.258,2.648,32.996,2.207,48.988-1.894c32.461-8.316,63.375-23.359,86.945-47.527
	c17.453-17.902,25.527-50.414,51.02-57.18c8.699-2.305,17.871-1.715,26.84-0.973c43.844,3.652,87.332,10.711,130.762,17.766
	c16.098,2.613,32.688,5.41,46.465,14.133c17.984,11.387,25.039,30.055,27.156,50.352c0.328,3.184,0.508,6.418,0.625,9.664
	c0.629,18.348-1.855,37.273-3.328,52.844c-0.156,1.637-0.348,3.305-0.586,4.965c3.332-1.359,6.41-3.078,9.156-5.215
	c4.688-3.652,8.434-8.492,10.609-15.129c3.34-10.203,2.039-21.32-0.141-31.832c-1.336-6.438-3.02-12.801-4.992-19.074
	c-1.672-5.352-3.559-10.637-5.676-15.828c-4.629-11.32-10.293-22.215-16.918-32.504c-3.52-5.461-7.957-9.641-12.984-12.91
	c-7.898-5.129-17.254-7.961-26.887-9.75c-0.43-0.078-0.859-0.168-1.301-0.242c-7.582-1.336-15.297-2.063-22.535-2.789
	c-28.242-2.82-57.418-5.988-85.445-11.527c-11.301-2.234-23.055-7.121-34.43-8.316c-9.813-1.035-20.047,0.418-30.035-0.867
	c-16.602-2.137-33-5.336-49.266-9.188c-2.973,23.629-6.219,48.504-15.25,69.731c-10.551,24.777-44.582,37.141-68.359,43
	c-20.031,4.934-41.199,5.508-61.348,0.891c-18.625-4.269-36.234-13.102-50.852-25.371c25.156,7.969,52.609,8.641,78.086,1.715
	c32.578-8.852,61.59-29.199,77.422-58.891c16.563-31.063,28.684-64.242,40.551-97.309c7.293-20.328,14.762-40.91,29.324-57.277
	c11.645-13.105,17.305-34.211,24.289-51.004c-4.672-10.625-12.219-26.859-22.512-40.125c-1.336-0.754-2.66-1.539-3.949-2.402
	c5.512,8.531,11.176,17.473,12.273,27.57c1.098,10.098-3.934,21.641-13.688,24.469c-6.352,1.844-13.137-0.254-19.742,0.109
	c0.555,0.418,1.074,0.809,1.582,1.191c3.723,2.816,5.996,4.59,5.996,4.59c6.164,5.379,7.859,19.824,4.66,27.516
	c-10.523,25.375-23.617,49.688-38.969,72.48c-15.633,23.215-37.156,58.758-66.551,65.598c-11.289,2.641-28.523-1.102-45.695-8.805
	c0.508,0.637,1,1.289,1.582,1.855c4.813,4.75,10.984,7.895,17.5,9.356c6.762,1.508,13.777,3.098,19.215,7.383
	c10.004,7.879,6.234,19.754,3.371,30.176c-3.145,11.445-12.238,16.707-23.273,21.496c-23.777,10.328-51.254,8.055-74.516-2.551
	c-19.805-9.031-36.285-25.613-45.223-45.281c-1.766-12.848-1.277-26,1.707-38.598c4.266-18.027,13.426-26.273,25.973-35.426
	c-1.242-0.164-2.469-0.383-3.711-0.535c-5.516-0.676-11.797-1.113-18.625-1.289c-0.254,1.754-0.922,3.508-1.652,5.145
	C1422.883,524.223,1414.66,543.945,1416.023,570.144z"/>
<path style="fill:#203A73;" d="M1689.461,386.746c9.754-2.828,14.785-14.371,13.688-24.469c-1.098-10.098-6.762-19.039-12.273-27.57
	c1.289,0.863,2.613,1.648,3.949,2.402c-2.84-3.664-5.871-7.129-9.137-10.156c-1.043-0.969-3.52-3.207-5.77-5.324
	c-1.801,0.539-3.598,1.082-5.395,1.621c-18.063,5.387-36.059,10.891-52.891,19.715c-4.066,2.129-7.781,4.387-11.363,6.699
	c15.004,4.625,45.316,26.57,59.449,37.191C1676.324,386.492,1683.109,388.59,1689.461,386.746z"/>
<path style="fill:#203A73;" d="M1431.105,533.262c-2.984,12.598-3.473,25.75-1.707,38.598c8.938,19.668,25.418,36.25,45.223,45.281
	c23.262,10.605,50.738,12.879,74.516,2.551c11.035-4.789,20.129-10.051,23.273-21.496c2.863-10.422,6.633-22.297-3.371-30.176
	c-5.438-4.285-12.453-5.875-19.215-7.383c-6.516-1.461-12.688-4.606-17.5-9.356c-0.582-0.566-1.074-1.219-1.582-1.855
	c-29.742-13.34-59.277-38.617-57.512-63.609c-1.723,1.434-3.453,2.859-5.234,4.16c-3.871,2.828-7.512,5.379-10.918,7.859
	C1444.531,506.988,1435.371,515.234,1431.105,533.262z"/>
<path style="fill:#1F2A50;" d="M1850.371,294.961c-0.148-2.305-0.422-4.559-0.859-6.746c-0.895-4.527-2.469-8.684-4.867-12.219
	c0.637,2.664,1.133,5.578,1.594,8.766c0.16,1.078,0.27,2.176,0.395,3.266c0.051,0.504,0.129,0.996,0.176,1.5
	c0.191,1.996,0.328,4.012,0.367,6.035v0.129c0.027,1.117,0.023,2.238,0,3.359c-0.199,8.637-2.066,17.168-6.887,24.535
	c-10.102,15.465-23.875,28.402-39.313,38.465c-13.09,8.559-27.363,15.121-42.133,20.227c-8.023,2.797-28.785,12.859-36.277,6.059
	c-0.785-0.707-2.527-4.961-5.23-11.102c-6.984,16.793-12.645,37.898-24.289,51.004c-14.563,16.367-22.031,36.949-29.324,57.277
	c-11.867,33.066-23.988,66.246-40.551,97.309c-15.832,29.691-44.844,50.039-77.422,58.891c-25.477,6.926-52.93,6.254-78.086-1.715
	c14.617,12.269,32.227,21.102,50.852,25.371c20.148,4.617,41.316,4.043,61.348-0.891c23.777-5.859,57.809-18.223,68.359-43
	c9.031-21.227,12.277-46.102,15.25-69.731c0.727-5.781,1.445-11.508,2.219-17.059c4.723-33.809,12.227-68.992,34.438-94.922
	c11.434-13.34,27.328-19.359,43.805-23.828c14.336-3.891,25.867-10.602,39.184-17.176c5.371-2.652,10.52-5.691,15.426-9.082
	c20.984-14.496,38.184-35.137,46.555-59.402C1848.309,320.973,1851.184,307.355,1850.371,294.961z"/>
<path style="fill:#EBF2E5;" d="M446.461,1326.324c107.766-46.605,211.914-101.332,312.609-161.648
	c46.375-27.777,92.031-56.746,137.039-86.684c22.508-14.973,44.859-30.188,67.059-45.625c8.629-5.996,20.269-9.965,27.184-18.133
	c1.785-2.106,2.324-3.777,2.188-5.316c-1.648-2.633-3.262-5.277-4.828-7.918c-3.043-5.09-6.047-10.164-9.203-15.109
	c-1.594-2.465-3.203-4.91-4.898-7.281l-1.277-1.777c-0.43-0.598-0.769-0.758-1.121-1.191c-0.848-0.617-1.887-1.07-3.109-1.328
	c-5.004-0.84-10.871,0.496-16.332,2.121c-5.531,1.676-10.973,3.836-16.344,6.176c-42.77,19.352-82.32,46.23-123.781,68.93
	c-40.992,23.656-81.656,47.867-122.121,72.43c-81.144,48.75-161.234,99.266-241.594,149.379l-119.32,74.629
	c6.582,1.754,13.324,2.848,20.016,3.18C382.543,1352.84,415.297,1339.809,446.461,1326.324z"/>
<path style="fill:#EBF2E5;" d="M324.664,1346.832l1.18-0.77l119.492-76.832c79.801-50.988,159.969-101.453,240.906-150.691
	c40.578-24.441,81.391-48.496,122.523-72.016l30.902-17.527c10.238-5.777,20.371-11.965,30.621-17.902
	c20.496-11.914,41.211-23.617,63.215-32.984c5.516-2.316,11.125-4.465,16.949-6.156c5.824-1.578,11.871-3.152,18.606-1.984
	c1.68,0.367,3.398,1.074,4.914,2.25c1.578,1.434,2.363,2.699,3.188,3.899c1.168,1.676,2.25,3.402,3.352,5.113
	c4.152,3.707,8.488,7.172,13.356,9.832c4.434,2.418,11.402,5.824,16.516,4.633c5.359-1.262,11.648-6.523,16.293-9.445
	c10.648-6.695,20.816-14.156,30.406-22.301c12.938-10.992,24.824-23.219,35.422-36.477c8.891-11.121,14.797-19.184,16.176-33.727
	c1.051-11.055,0.219-22.188-1.457-33.156c-25.844-91.863-19.242-133.906,1.934-175.188c20.535-40.063,16.457-61.074,15.395-64.969
	c-0.305-0.227-0.582-0.48-0.895-0.695v-0.02c-4.891-3.453-10.949-5.441-16.938-5.992c-7.004-0.641-37.664,11.344-83.25,31.715
	c-4.973,68.293-52.883,134.805-127.813,167.305c-29.781,12.91-60.566,19.039-90.191,19.039c-0.203,0-0.402-0.02-0.602-0.02
	c3.309,0.164,6.555,0.191,9.695-0.047c-23.141,1.738-46.414,3.477-69.512,1.25c-22.043-2.121-44.082-8.133-62.605-20.211
	c-168.867,87.719-335.191,180.777-386.648,224.926c-32.586,27.973-30.004,177.516-18.766,272.527
	C286.582,1327.875,304.594,1340.57,324.664,1346.832z"/>
<path style="fill:#EBF2E5;" d="M805.465,825.43c28.75,0,58.68-5.945,87.66-18.512c71.688-31.074,117.652-94.078,123.738-158.52
	c-76.578,34.488-191.844,90.813-308.637,151.02C736.188,816.289,769.883,825.418,805.465,825.43z"/>
<path style="fill:#C6CAD6;" d="M814.559,831.719c-3.141,0.238-6.387,0.211-9.695,0.047c-37.789-0.098-73.664-10.262-103.164-28.984
	c-6.418,3.32-12.836,6.641-19.258,9.977c18.523,12.078,40.563,18.09,62.605,20.211C768.144,835.195,791.418,833.457,814.559,831.719
	z"/>
<path style="fill:#C6CAD6;" d="M277.027,1310.211c2.988,25.27,6.59,46.688,10.305,60.93l37.332-24.309
	C304.594,1340.57,286.582,1327.875,277.027,1310.211z"/>
<path style="fill:#C6CAD6;" d="M1185.246,1015.965c-29.953-26.738-45.746-50.559-71.113-132.051
	c-2.531-8.133-4.816-15.875-6.91-23.324c1.676,10.969,2.508,22.102,1.457,33.156c-1.379,14.543-7.285,22.606-16.176,33.727
	c-10.598,13.258-22.484,25.484-35.422,36.477c-9.59,8.144-19.758,15.606-30.406,22.301c-4.644,2.922-10.934,8.184-16.293,9.445
	c-5.113,1.191-12.082-2.215-16.516-4.633c-4.867-2.66-9.203-6.125-13.356-9.832c0.516,0.805,1.063,1.594,1.57,2.398
	c3.152,5.066,6.109,10.223,9.082,15.328c11.195,20.82,26.828,38.496,43.805,54.91c18.32,17.734,38.535,33.367,59.867,47.395
	c47.953-37.727,81.211-66.59,89.402-79.684c1.02-1.633,1.703-3.055,1.926-4.18
	C1185.852,1016.938,1185.555,1016.438,1185.246,1015.965z"/>
<path style="fill:#C6CAD6;" d="M1032.832,1056.121c-8.707-8.102-16.957-16.707-24.695-25.754
	c-5.859-6.641-10.914-13.973-15.598-21.449c0.137,1.539-0.402,3.211-2.188,5.316c-6.914,8.168-18.555,12.137-27.184,18.133
	c-22.199,15.438-44.551,30.652-67.059,45.625c-45.008,29.938-90.664,58.906-137.039,86.684
	c-100.695,60.316-204.844,115.043-312.609,161.648c-31.164,13.484-63.918,26.516-97.836,24.832
	c-6.691-0.332-13.434-1.426-20.016-3.18l-1.113,0.691l-39.59,24.578c2.367,8.582,4.77,14.234,7.082,16.027l141.492,124.504
	c24.695,16.035,56.555,15.883,81.101-0.383c108.906-72.234,419.504-288.16,576.059-411.188
	C1072.094,1088.672,1051.578,1073.492,1032.832,1056.121z"/>
<path style="fill:#203A73;" d="M1034.969,1053.867c-16.977-16.414-32.609-34.09-43.805-54.91c-2.973-5.105-5.93-10.262-9.082-15.328
	c-0.508-0.805-1.055-1.594-1.57-2.398c-1.102-1.711-2.184-3.438-3.352-5.113c-0.824-1.199-1.609-2.465-3.188-3.899
	c-1.516-1.176-3.234-1.883-4.914-2.25c-6.734-1.168-12.781,0.406-18.606,1.984c-5.824,1.691-11.434,3.84-16.949,6.156
	c-22.004,9.367-42.719,21.07-63.215,32.984c-10.25,5.938-20.383,12.125-30.621,17.902l-30.902,17.527
	c-41.133,23.52-81.945,47.574-122.523,72.016c-80.938,49.238-161.106,99.703-240.906,150.691l-119.492,76.832l-1.18,0.77
	l-37.332,24.309c0.188,0.73,0.383,1.414,0.574,2.105l39.59-24.578l1.113-0.691l119.32-74.629
	c80.359-50.113,160.449-100.629,241.594-149.379c40.465-24.563,81.129-48.773,122.121-72.43
	c41.461-22.699,81.012-49.578,123.781-68.93c5.371-2.34,10.813-4.5,16.344-6.176c5.461-1.625,11.328-2.961,16.332-2.121
	c1.223,0.258,2.262,0.711,3.109,1.328c0.352,0.434,0.691,0.594,1.121,1.191l1.277,1.777c1.695,2.371,3.305,4.816,4.898,7.281
	c3.156,4.945,6.16,10.02,9.203,15.109c1.566,2.641,3.18,5.285,4.828,7.918c4.684,7.477,9.738,14.809,15.598,21.449
	c7.738,9.047,15.988,17.652,24.695,25.754c18.746,17.371,39.262,32.551,60.809,46.086c0.398-0.316,0.797-0.629,1.195-0.945
	C1073.504,1087.234,1053.289,1071.602,1034.969,1053.867z"/>
<path style="fill:#203A73;" d="M804.863,831.766c0.199,0,0.398,0.02,0.602,0.02c29.625,0,60.41-6.129,90.191-19.039
	c74.93-32.5,122.84-99.012,127.813-167.305c-2.188,0.977-4.348,1.938-6.606,2.957c-6.086,64.441-52.051,127.445-123.738,158.52
	c-28.981,12.566-58.91,18.512-87.66,18.512c-35.582-0.012-69.277-9.141-97.238-26.012c-2.172,1.117-4.352,2.242-6.527,3.363
	C731.199,821.504,767.074,831.668,804.863,831.766z"/>
<path style="fill:#EBF2E5;" d="M1526.852,454.242c34.316-2.109,68.102-12.445,97.805-29.73
	c15.109-8.793,29.172-19.387,41.668-31.617c1.648-1.613,3.305-3.262,4.977-4.848c-0.508-0.383-1.027-0.773-1.582-1.191
	c-14.133-10.621-44.445-32.566-59.449-37.191c-2.742-0.848-4.98-1.125-6.508-0.641c-9.637,3.051-17.223,10.379-24.449,17.477
	c-27.172,26.688-54.328,53.398-81.504,80.105l-1.227,1.207c-1.809,1.789-3.617,3.609-5.395,5.469
	C1503.023,454.586,1514.965,454.973,1526.852,454.242z"/>
<path style="fill:#C6CAD6;" d="M1578.34,538.426c31.137,1.867,98.957-145.789,98.957-145.789s-2.273-1.773-5.996-4.59
	c-1.672,1.586-3.328,3.234-4.977,4.848c-12.496,12.23-26.559,22.824-41.668,31.617c-29.703,17.285-63.488,27.621-97.805,29.73
	c-11.887,0.73-23.828,0.344-35.664-0.961c-6.262,6.551-12.035,13.613-15.32,21.75C1496.328,525.676,1547.82,536.582,1578.34,538.426
	z"/>
<path style="fill:#EBF2E5;" d="M1701.926,334.883c10.688,0.68,21.434,0.523,32.09-0.5c41.047-3.934,76.766-20.285,109.688-44.363
	c1.035-0.758,1.98-1.371,2.93-1.992c-0.125-1.09-0.234-2.188-0.395-3.266c-0.461-3.188-0.957-6.102-1.594-8.766
	c-2.195-9.238-6.344-15.012-19.035-14.832c-19.953,0.273-131.473,42.215-139.563,46.832c-3.969,2.27-8.977,4.648-10.234,7.535
	c-0.012,0.031-0.035,0.055-0.047,0.09c-0.035,0.078-0.055,0.156-0.078,0.234c-0.125,0.379-0.211,0.766-0.191,1.164
	C1675.496,317.02,1682.629,307.055,1701.926,334.883z"/>
<path style="fill:#C6CAD6;" d="M1846.809,289.527c-0.047-0.504-0.125-0.996-0.176-1.5c-0.949,0.621-1.895,1.234-2.93,1.992
	c-32.922,24.078-68.641,40.43-109.688,44.363c-10.656,1.023-21.402,1.18-32.09,0.5c6.406,9.234,14.148,22.625,23.414,41.934
	c0,0,11.055,7.074,30.098,1.758c19.039-5.316,80.914-43.379,86.332-61.09c4.559-14.953,5.273-20.441,5.406-21.793v-0.129
	C1847.137,293.539,1847,291.523,1846.809,289.527z"/>
<path style="fill:#A1A8C3;" d="M1685.688,326.953c3.266,3.027,6.297,6.492,9.137,10.156c10.293,13.266,17.84,29.5,22.512,40.125
	c2.703,6.141,4.445,10.395,5.23,11.102c7.492,6.801,28.254-3.262,36.277-6.059c14.77-5.105,29.043-11.668,42.133-20.227
	c15.438-10.063,29.211-23,39.313-38.465c4.82-7.367,6.688-15.898,6.887-24.535c0.023-1.121,0.027-2.242,0-3.359
	c-0.133,1.352-0.848,6.84-5.406,21.793c-5.418,17.711-67.293,55.773-86.332,61.09c-19.043,5.316-30.098-1.758-30.098-1.758
	c-9.266-19.309-17.008-32.699-23.414-41.934c-19.297-27.828-26.43-17.863-26.43-17.863c-0.02-0.398,0.066-0.785,0.191-1.164
	c-1.02,2.445-1.336,4.906-1.164,7.395c1.797-0.539,3.594-1.082,5.395-1.621C1682.168,323.746,1684.645,325.984,1685.688,326.953z"/>
<path style="fill:#A1A8C3;" d="M1530.742,549.426c17.172,7.703,34.406,11.445,45.695,8.805c29.395-6.84,50.918-42.383,66.551-65.598
	c15.352-22.793,28.445-47.105,38.969-72.48c3.199-7.691,1.504-22.137-4.66-27.516c0,0-67.82,147.656-98.957,145.789
	c-30.52-1.844-82.012-12.75-102.473-63.395c-0.871,2.121-1.566,4.301-2.059,6.586c-0.305,1.398-0.477,2.797-0.578,4.199
	C1471.465,510.809,1501,536.086,1530.742,549.426z"/>
<path style="fill:#A1A8C3;" d="M1109.156,685.402c-21.176,41.281-27.777,83.324-1.934,175.188c2.094,7.449,4.379,15.191,6.91,23.324
	c25.367,81.492,41.16,105.313,71.113,132.051c0.309,0.473,0.605,0.973,0.918,1.434c-0.223,1.125-0.906,2.547-1.926,4.18
	c1.238-1.18,2.16-2.551,2.609-4.18c3.5-12.656,4.316-33.043-2.617-64.266c-6.648,7.129-13.215,14.309-19.75,21.582
	c-12.219-28.617-22.707-62.152-31.164-94.094c-12.949-48.93-21.133-94.066-23.438-111.805c-4.422-33.84,8.707-67.106,18.754-99.352
	c0.879-2.816,1.738-5.621,2.555-8.422c2.91-10.027,5.68-21.098,1.789-30.652c-0.18-0.457-0.305-0.926-0.52-1.371
	c-1.844-3.813-4.684-6.906-8.113-9.281c0.023,0.07,0.105,0.34,0.207,0.695C1125.613,624.328,1129.691,645.34,1109.156,685.402z"/>
<path style="fill:#EBF2E5;" d="M1937.605,659.449c-2.117-20.297-9.172-38.965-27.156-50.352
	c-13.777-8.723-30.367-11.52-46.465-14.133c-43.43-7.055-86.918-14.113-130.762-17.766c-8.969-0.742-18.141-1.332-26.84,0.973
	c-25.492,6.766-33.566,39.277-51.02,57.18c-23.57,24.168-54.484,39.211-86.945,47.527c-15.992,4.102-32.73,4.543-48.988,1.894
	c-8.82-0.238-17.57-1.488-26.02-4.078c-18.938-5.813-35.508-17.895-49.035-32.359c-20.586-22.012-34.816-50.156-38.996-80.004
	c-3.734-26.726,2.691-48.73,10.992-73.617c1.117-3.34,1.211-6.883,1.254-10.402c-17.984-3.574-34.461-0.078-50.762,6.141
	c-8.359,3.191-16.68,7.082-25.133,11.078c-34.348,16.219-121.078,68.695-125.898,79.938c-1.75,4.07-2.906,8.5-3.605,13.172
	c-1.289,8.598-0.961,18.063,0.531,27.938c-1.398,8.852-2.473,17.727-3.176,26.602c-1.43,18.074-1.199,35.785,0.477,53.106
	c1.656,17.113,4.746,33.84,9.348,50.082c9.363-4.356,16.48-10.566,17.691-22.629c1.406-14.059,0.457-28.313-2.496-42.129
	c-0.922-2.078-1.906-4.129-2.785-6.227l-5.734-14.367l-5.203-14.559l-4.391-14.809c-1.32-4.977-2.52-9.98-3.688-14.98
	c1.824,4.813,3.574,9.633,5.285,14.457l1.461,3.648c21.453,24.051,49.414,50.402,80.938,43.746
	c23.105-4.879,40.809-26.973,64.41-27.91c26.16-1.047,44.891,23.422,65.5,39.559c31.457,24.641,73.906,31.641,113.652,27.519
	c39.746-4.117,77.668-18.297,115.07-32.371c34.813-13.098,70.25-26.359,107.363-28.762c32.109-2.078,63.809,4.156,95.652,6.965
	c24.914,2.195,51.629-4.426,75.926-0.441c0.055,0.008,0.113,0.027,0.172,0.035C1938.113,665.867,1937.934,662.633,1937.605,659.449z
	"/>
<path style="fill:#C6CAD6;" d="M1284.719,780.508c-1.266-2.75-2.875-5.363-4.391-7.977c-6.285-10.84-12.789-21.547-18.777-32.551
	c-2.281-4.191-6.426-10.57-8.895-16.875c-6.637-11.508-12.66-23.363-18.055-35.496c2.953,13.816,3.902,28.07,2.496,42.129
	c-1.211,12.063-8.328,18.273-17.691,22.629c5.852,20.66,14.105,40.547,24.566,59.555c9.801,17.813,21.559,34.844,35.25,50.969
	c0.633,0.742,1.215,1.504,1.852,2.242c9.605,11.106,20.949,1.981,30.469-7.32c-0.074-0.305-0.148-0.621-0.227-0.926
	C1304.949,830.645,1296.016,805.031,1284.719,780.508z"/>
<path style="fill:#A1A8C3;" d="M1405.379,568.332c4.18,29.848,18.41,57.992,38.996,80.004
	c13.527,14.465,30.098,26.547,49.035,32.359c8.449,2.59,17.199,3.84,26.02,4.078c-30.242-4.922-58.836-20.715-77.824-44.832
	c-15.609-19.824-24.273-44.68-25.582-69.797c-1.363-26.199,6.859-45.922,17.066-68.988c0.73-1.637,1.398-3.391,1.652-5.145
	c0.176-1.156,0.199-2.313-0.184-3.43c-1.117-3.266-4.695-4.906-7.977-5.969c-3.031-0.988-6.012-1.715-8.957-2.301
	c-0.043,3.52-0.137,7.063-1.254,10.402C1408.07,519.602,1401.645,541.606,1405.379,568.332z"/>
<path style="fill:#A1A8C3;" d="M1836.16,746.238c-5.473,0.641-10.555,1.184-15.457,1.781c-12.73,1.559-24.176,3.527-37.664,8.797
	c-19.375,7.566-38.559,15.648-58.277,22.297c-68.445,23.09-142.648,28.855-213.836,16.605c-28.875-4.965-58.781-12.805-86.93-4.66
	c-24.727,7.16-43.344,25.078-58.734,46.305c6.887-0.914,13.273-5.426,23.477-11.191c24.645-13.93,52.027-25.82,80.328-23.051
	c32.891,3.219,64.004,14.738,97.5,14.488c48.418-0.371,97.676-12.211,144.844-21.961c67.637-13.977,133.086-33.207,200.461-46.926
	c5.633-1.148,11.574-2.449,15.773-6.367c3.391-3.164,5.109-7.5,6.09-12.109c-1.059,0.27-2.121,0.543-3.148,0.754
	C1899.352,737.434,1867.832,742.512,1836.16,746.238z"/>
<path style="fill:#A1A8C3;" d="M1341.719,828.34c0.082,0.094,0.172,0.18,0.254,0.27c-3.973-3.246-7.945-6.52-11.836-9.887
	l-11.398-10.43l-10.832-11.023l-10.434-11.418c-13.664-15.477-25.891-32.199-36.953-49.641c-2.699-4.324-5.32-8.691-7.863-13.105
	c2.469,6.305,6.613,12.684,8.895,16.875c5.988,11.004,12.492,21.711,18.777,32.551c1.516,2.613,3.125,5.227,4.391,7.977
	c11.297,24.523,20.23,50.137,26.598,76.379c0.078,0.305,0.152,0.621,0.227,0.926c3.211-3.129,6.203-6.277,8.859-8.68
	c7.137-6.469,14.836-13.176,21.605-20.496c0.008,0.004,0.008,0.008,0.02,0.012c-0.02-0.016-0.035-0.027-0.047-0.039
	C1341.891,828.52,1341.809,828.43,1341.719,828.34z"/>
<path style="fill:#C6CAD6;" d="M1938.059,669.078c-24.297-3.984-51.012,2.637-75.926,0.441c-31.844-2.809-63.543-9.043-95.652-6.965
	c-37.113,2.402-72.551,15.664-107.363,28.762c-37.402,14.074-75.324,28.254-115.07,32.371
	c-39.746,4.121-82.195-2.879-113.652-27.519c-20.609-16.137-39.34-40.606-65.5-39.559c-23.602,0.938-41.305,23.031-64.41,27.91
	c-31.523,6.656-59.484-19.695-80.938-43.746l0.012,0.023l4.242,10.582l5.539,13.047l0.453,1.063l6.473,13.879
	c8.953,18.332,18.727,36.246,29.629,53.465c7.605,12.203,15.805,24.024,24.387,35.574c3.582,4.82,7.211,9.605,10.926,14.328
	l9.68,11.871l10.082,11.543l0.473,0.523l9.855,10.848c3.5,3.562,6.984,7.164,10.422,10.82c0.09,0.09,0.172,0.18,0.262,0.27
	c0.012,0.012,0.027,0.023,0.047,0.039c1.855,1.551,3.43,2.742,4.605,3.434c7.801,4.574,13.363,5.977,18.629,5.281
	c15.391-21.227,34.008-39.145,58.734-46.305c28.148-8.144,58.055-0.305,86.93,4.66c71.188,12.25,145.391,6.484,213.836-16.605
	c19.719-6.648,38.902-14.731,58.277-22.297c13.488-5.269,24.934-7.238,37.664-8.797c4.902-0.598,9.984-1.141,15.457-1.781
	c31.672-3.727,63.191-8.805,94.426-15.238c1.027-0.211,2.09-0.484,3.148-0.754c0.238-1.098,0.414-2.211,0.582-3.324
	c0.238-1.66,0.43-3.328,0.586-4.965c1.473-15.57,3.957-34.496,3.328-52.844C1938.172,669.106,1938.113,669.086,1938.059,669.078z"/>
<path style="fill:#203A73;" d="M1260.52,736.211c11.063,17.441,23.289,34.164,36.953,49.641l10.434,11.418l10.832,11.023
	l11.398,10.43c3.891,3.367,7.863,6.641,11.836,9.887c-0.082-0.09-0.172-0.176-0.254-0.27c-3.438-3.656-6.922-7.258-10.422-10.82
	l-9.855-10.848l-0.473-0.523l-10.082-11.543l-9.68-11.871c-3.715-4.723-7.344-9.508-10.926-14.328
	c-8.582-11.551-16.781-23.371-24.387-35.574c-10.902-17.219-20.676-35.133-29.629-53.465l-6.473-13.879l-0.453-1.063l-5.539-13.047
	l-4.242-10.582l-0.012-0.023l-1.461-3.648c-1.711-4.824-3.461-9.644-5.285-14.457c1.168,5,2.367,10.004,3.688,14.98l4.391,14.809
	l5.203,14.559l5.734,14.367c0.879,2.098,1.863,4.148,2.785,6.227c5.395,12.133,11.418,23.988,18.055,35.496
	C1255.199,727.519,1257.82,731.887,1260.52,736.211z"/>
<path style="fill:#C6CAD6;" d="M2291.219,383.113c-14.09,16.883-27.125,34.684-40.934,51.801c-3.223,3.996-6.445,7.988-9.668,11.98
	c14.625,12.008,22.352,26.711,21.75,28.215c1.398-0.711,11.613-13.488,18.594-23.125c2.965-4.086,5.25-7.305,5.867-8.238
	c8.348-12.602,16.371-25.461,23.574-38.762c4.535-8.363,8.773-16.922,12.52-25.672c3.266-7.621,8.492-16.563,4.086-24.781
	c-0.887-1.652-2.176-3.219-3.918-4.617c-2.309-1.844-4.93-3.211-7.715-4.266c-1.43,2.938-2.914,5.848-4.488,8.707
	C2305.258,364.535,2298.672,374.184,2291.219,383.113z"/>
<path style="fill:#A1A8C3;" d="M2196.391,432.242c0.102,0.016,0.195,0.031,0.297,0.051c1.262,0.219,2.645,0.504,4.102,0.84
	c0.168,0.039,0.328,0.078,0.496,0.117c1.477,0.352,3.035,0.754,4.652,1.215c0.121,0.035,0.246,0.074,0.371,0.113
	c1.652,0.48,3.352,1.012,5.078,1.605c0.039,0.012,0.078,0.023,0.105,0.035c1.672,0.574,3.355,1.215,5.023,1.891
	c0.258,0.105,0.508,0.199,0.758,0.309c1.602,0.656,3.176,1.371,4.723,2.121c0.293,0.141,0.57,0.281,0.859,0.426
	c1.539,0.773,3.035,1.582,4.457,2.441c0.207,0.125,0.398,0.254,0.598,0.379c1.477,0.918,2.902,1.871,4.188,2.883
	c2.332,1.836,4.449,3.508,6.449,5.102c9.602,7.648,15.629,12.879,20.277,18.578c0.004,0,0.004,0,0.004,0
	c-0.715,1.805-1.563,3.574-2.492,5.293c-0.023,0.051-0.047,0.098-0.078,0.148c3.91-0.098,6.109-0.672,6.109-0.672s0-0.004,0-0.008
	c0.602-1.504-7.125-16.207-21.75-28.215c-7.715-6.336-17.316-11.938-28.688-14.426l-0.02-0.035
	c-19.445-4.801-21.707-0.719-21.707-0.719s-0.746,0.93-0.426,3.051c1.398-0.949,2.777-1.906,4.16-2.859
	C2194.707,431.996,2195.484,432.086,2196.391,432.242z"/>
</svg>
